<?xml version="1.0" encoding="utf-8"?>
<!-- Generator: Adobe Illustrator 24.2.1, SVG Export Plug-In . SVG Version: 6.00 Build 0)  -->
<svg version="1.1" id="Layer_1" xmlns="http://www.w3.org/2000/svg" xmlns:xlink="http://www.w3.org/1999/xlink" x="0px" y="0px"
	 viewBox="0 0 40 32" style="enable-background:new 0 0 40 32;" xml:space="preserve">
<style type="text/css">
	.st0{opacity:0.15;fill-rule:evenodd;clip-rule:evenodd;fill:url(#SVGID_1_);enable-background:new    ;}
	.st1{fill:url(#SVGID_2_);}
	.st2{fill:#FFFFFF;}
	.st3{display:none;}
	.st4{display:inline;}
	.st5{fill:none;}
	.st6{fill:url(#SVGID_3_);}
</style>
<g id="Layer_3">
</g>
<linearGradient id="SVGID_1_" gradientUnits="userSpaceOnUse" x1="7.7726" y1="-1009.8076" x2="31.3078" y2="-1043.8618" gradientTransform="matrix(1 0 0 -1 0 -1012)">
	<stop  offset="0.2593" style="stop-color:#FFDB6E"/>
	<stop  offset="1" style="stop-color:#FFBC5E"/>
</linearGradient>
<path class="st0" d="M3,1C1.9,1,1,1.9,1,3v25c0,1.1,0.9,2,2,2h34c1.1,0,2-0.9,2-2V3c0-1.1-0.9-2-2-2H3z"/>
<linearGradient id="SVGID_2_" gradientUnits="userSpaceOnUse" x1="-8.741" y1="1092.8267" x2="-1.794" y2="1103.2249" gradientTransform="matrix(1 0 0 1 0 -1046)">
	<stop  offset="0.2593" style="stop-color:#FFDB6E"/>
	<stop  offset="1" style="stop-color:#FFBC5E"/>
</linearGradient>
<path class="st1" d="M5.2,56.1h-19.7c-0.4,0-0.8-0.4-0.8-0.8v-4.7c0-0.4,0.4-0.8,0.8-0.8H5.2c0.4,0,0.8,0.4,0.8,0.8v4.7
	C6,55.8,5.6,56.1,5.2,56.1z"/>
<path d="M-85.3,55.6c3.6,0,7-0.3,10.1-1s5.6-1.6,7.4-2.9v3.9c0,1-0.8,2-2.3,2.9s-3.7,1.6-6.4,2.1c-2.7,0.5-5.6,0.8-8.8,0.8
	c-3.2,0-6.1-0.3-8.8-0.8c-2.7-0.5-4.8-1.2-6.4-2.1s-2.3-1.9-2.3-2.9v-3.9c1.8,1.3,4.3,2.2,7.4,2.9S-88.9,55.6-85.3,55.6z
	 M-85.3,73.1c3.6,0,7-0.3,10.1-1s5.6-1.6,7.4-2.9v3.9c0,1-0.8,2-2.3,2.9s-3.7,1.6-6.4,2.1c-2.7,0.5-5.6,0.8-8.8,0.8
	c-3.2,0-6.1-0.3-8.8-0.8c-2.7-0.5-4.8-1.2-6.4-2.1s-2.3-1.9-2.3-2.9v-3.9c1.8,1.3,4.3,2.2,7.4,2.9S-88.9,73.1-85.3,73.1z
	 M-85.3,64.3c3.6,0,7-0.3,10.1-1s5.6-1.6,7.4-2.9v3.9c0,1-0.8,2-2.3,2.9c-1.6,0.9-3.7,1.6-6.4,2.1c-2.7,0.5-5.6,0.8-8.8,0.8
	c-3.2,0-6.1-0.3-8.8-0.8c-2.7-0.5-4.8-1.2-6.4-2.1s-2.3-1.9-2.3-2.9v-3.9c1.8,1.3,4.3,2.2,7.4,2.9C-92.3,64-88.9,64.3-85.3,64.3z
	 M-85.3,38.1c3.2,0,6.1,0.3,8.8,0.8c2.7,0.5,4.8,1.2,6.4,2.1s2.3,1.9,2.3,2.9v2.9c0,1-0.8,2-2.3,2.9s-3.7,1.6-6.4,2.1
	c-2.7,0.5-5.6,0.8-8.8,0.8c-3.2,0-6.1-0.3-8.8-0.8c-2.7-0.5-4.8-1.2-6.4-2.1s-2.3-1.9-2.3-2.9v-2.9c0-1,0.8-2,2.3-2.9
	s3.7-1.6,6.4-2.1S-88.4,38.1-85.3,38.1z"/>
<g>
	<path d="M-62.2,87.1c-2,0-3.6-1.6-3.6-3.7v-1.6c0-0.8-0.7-1.4-1.5-1.4c-0.4,0-0.8,0.2-1,0.5l-1.1,1.1c-0.7,0.7-1.6,1-2.6,1
		s-1.9-0.4-2.6-1l-2.4-2.3c-0.7-0.7-1.1-1.6-1.1-2.5c0-1,0.4-1.9,1.1-2.6l1-1c0.4-0.3,0.5-0.7,0.5-1.1c0-0.8-0.7-1.5-1.4-1.5h-1.6
		c-2,0-3.7-1.6-3.7-3.6v-3.2c0-2,1.6-3.6,3.7-3.6h1.6c0.8,0,1.4-0.7,1.4-1.5c0-0.4-0.2-0.8-0.5-1.1l-1-1c-0.7-0.7-1.1-1.6-1.1-2.5
		c0-1,0.4-1.9,1.1-2.6l2.4-2.3c0.7-0.7,1.6-1,2.6-1s1.9,0.4,2.6,1l1,1c0.3,0.3,0.7,0.5,1.1,0.5c0.8,0,1.5-0.7,1.5-1.4V48
		c0-2,1.6-3.7,3.6-3.7h3.2c2,0,3.6,1.6,3.6,3.7v1.6c0,0.8,0.7,1.4,1.5,1.4c0.4,0,0.8-0.2,1.1-0.5l1-1c0.7-0.7,1.6-1,2.6-1
		s1.9,0.4,2.6,1l2.4,2.3c0.7,0.7,1.1,1.6,1.1,2.6s-0.4,1.9-1.1,2.6l-1,1c-0.3,0.3-0.5,0.6-0.5,1c0,0.8,0.7,1.5,1.4,1.5h1.6
		c0.9,0,1.8,0.4,2.4,1c0.7,0.7,1,1.6,1,2.6v3.2c0,2-1.5,3.6-3.5,3.6h-1.6c-0.8,0-1.4,0.7-1.4,1.5c0,0.4,0.2,0.7,0.5,1l1.1,1
		c0.7,0.7,1.1,1.6,1.1,2.6s-0.4,1.9-1.1,2.6l-2.4,2.4c-0.7,0.7-1.6,1-2.6,1s-1.9-0.4-2.6-1l-1-1c-0.3-0.3-0.7-0.5-1.1-0.5
		c-0.8,0-1.5,0.7-1.5,1.4v1.6c0,2-1.6,3.7-3.6,3.7L-62.2,87.1L-62.2,87.1z M-60.6,58.2c-4.1,0-7.5,3.4-7.5,7.5s3.4,7.5,7.5,7.5
		s7.5-3.4,7.5-7.5S-56.5,58.2-60.6,58.2z"/>
	<path class="st2" d="M-59,45.4c1.4,0,2.6,1.2,2.6,2.7v1.6c0,1.3,1.1,2.4,2.5,2.4c0.7,0,1.3-0.3,1.8-0.8l1-1
		c0.5-0.5,1.2-0.7,1.9-0.7s1.4,0.3,1.9,0.7l2.4,2.3c1,1,1,2.7,0,3.7l-1,1c-0.5,0.5-0.8,1.1-0.8,1.8c0,1.3,1.1,2.5,2.4,2.5h1.6
		c1.4,0,2.5,1.1,2.5,2.6v1.6v1.6c0,1.4-1,2.6-2.5,2.6h-1.6c-1.3,0-2.4,1.1-2.4,2.5c0,0.7,0.3,1.3,0.8,1.8l1,1c1,1,1,2.7,0,3.7
		l-2.4,2.4c-0.5,0.5-1.2,0.7-1.9,0.7s-1.4-0.3-1.9-0.7l-1-1c-0.5-0.5-1.1-0.8-1.8-0.8c-1.4,0-2.5,1.1-2.5,2.4v1.6
		c0,1.4-1.1,2.7-2.6,2.7h-3.2c-1.5,0-2.6-1.2-2.6-2.7V82c0-1.3-1.1-2.4-2.5-2.4c-0.7,0-1.3,0.3-1.8,0.8l-1,1
		c-0.5,0.5-1.2,0.7-1.9,0.7c-0.7,0-1.4-0.3-1.9-0.7l-2.4-2.4c-1-1-1-2.7,0-3.7l1-1c0.5-0.5,0.8-1.1,0.8-1.8c0-1.3-1.1-2.5-2.4-2.5
		h-1.6c-1.5,0-2.7-1.1-2.7-2.6v-1.6v-1.6c0-1.4,1.2-2.6,2.7-2.6h1.6c1.3,0,2.4-1.1,2.4-2.5c0-0.7-0.3-1.3-0.8-1.8l-1-1
		c-1-1-1-2.7,0-3.7l2.4-2.3c0.5-0.5,1.2-0.7,1.9-0.7s1.4,0.3,1.9,0.7l1,1c0.5,0.5,1.1,0.8,1.8,0.8c1.4,0,2.5-1.1,2.5-2.4V48
		c0-1.4,1.1-2.7,2.6-2.7h3.2 M-60.6,74.2c4.7,0,8.5-3.8,8.5-8.5s-3.8-8.5-8.5-8.5s-8.5,3.8-8.5,8.5S-65.3,74.2-60.6,74.2 M-59,43.4
		h-3.2c-2.5,0-4.6,2.1-4.6,4.7v1.6c0,0.2-0.2,0.4-0.5,0.4c0,0-0.2,0-0.3-0.1l0,0l0,0l-1-1c-0.8-0.8-2-1.3-3.3-1.3
		c-1.2,0-2.4,0.5-3.3,1.3l-2.4,2.3c-0.9,0.9-1.4,2.1-1.4,3.3s0.5,2.4,1.4,3.3l1,1l0,0l0,0c0.1,0.1,0.2,0.2,0.2,0.3
		c0,0.3-0.2,0.5-0.4,0.5h-1.6c-2.6,0-4.7,2.1-4.7,4.6v1.6v1.6c0,2.5,2.1,4.6,4.7,4.6h1.6c0.2,0,0.4,0.2,0.4,0.5
		c0,0.1-0.1,0.2-0.2,0.3l0,0l0,0l-1,1c-0.9,0.9-1.4,2-1.4,3.3c0,1.2,0.5,2.4,1.4,3.3l2.4,2.4c0.8,0.8,2,1.3,3.3,1.3
		c1.2,0,2.4-0.5,3.3-1.3l1-1l0,0l0,0c0.1-0.1,0.2-0.1,0.3-0.1c0.3,0,0.5,0.2,0.5,0.4v1.6c0,2.6,2.1,4.7,4.6,4.7h3.2
		c2.5,0,4.6-2.1,4.6-4.7v-1.6c0-0.2,0.2-0.4,0.5-0.4c0.1,0,0.3,0.1,0.3,0.2l0,0l0,0l1,1c0.9,0.9,2.1,1.3,3.3,1.3s2.4-0.5,3.3-1.3
		l2.4-2.4c0.9-0.9,1.4-2,1.4-3.3c0-1.2-0.5-2.4-1.3-3.3l-1.1-1l0,0l0,0c-0.1-0.1-0.1-0.2-0.1-0.3c0-0.3,0.2-0.5,0.4-0.5h1.6
		c2.5,0,4.5-2,4.5-4.6V66v-1.6c0-1.2-0.4-2.4-1.3-3.3c-0.8-0.8-1.9-1.3-3.2-1.3h-1.6c-0.2,0-0.4-0.2-0.4-0.5c0-0.1,0-0.2,0.1-0.3
		l0,0l0,0l1-1c0.9-0.9,1.4-2,1.4-3.3c0-1.2-0.5-2.4-1.4-3.3l-2.4-2.3c-0.8-0.8-2-1.3-3.3-1.3c-1.2,0-2.4,0.5-3.3,1.3l-1,1l0,0l0,0
		c-0.1,0.1-0.2,0.2-0.3,0.2c-0.3,0-0.5-0.2-0.5-0.4V48C-54.4,45.5-56.5,43.4-59,43.4L-59,43.4z M-60.6,72.2c-3.6,0-6.5-2.9-6.5-6.5
		s2.9-6.5,6.5-6.5s6.5,2.9,6.5,6.5C-54.1,69.3-57,72.2-60.6,72.2L-60.6,72.2z"/>
</g>
<g id="Layer_2_1_" class="st3">
	<g class="st4">
		<path class="st5" d="M0,0"/>
	</g>
</g>
<linearGradient id="SVGID_3_" gradientUnits="userSpaceOnUse" x1="16.5121" y1="-0.665" x2="23.5902" y2="33.2257">
	<stop  offset="0.2593" style="stop-color:#FFDB6E"/>
	<stop  offset="1" style="stop-color:#FFBC5E"/>
</linearGradient>
<path class="st6" d="M37.6,0.4H2.4C1.1,0.4,0,1.4,0,2.8v26.5c0,1.3,1.1,2.4,2.4,2.4h35.2c1.3,0,2.4-1.1,2.4-2.4V2.8
	C40,1.4,38.9,0.4,37.6,0.4z M38.4,29.2c0,0.5-0.4,0.8-0.8,0.8H2.4c-0.5,0-0.8-0.4-0.8-0.8V2.8C1.6,2.3,2,2,2.4,2h35.2
	c0.5,0,0.8,0.4,0.8,0.8V29.2z M14.9,5.8h20.2c0.4,0,0.8-0.3,0.8-0.8c0-0.4-0.3-0.8-0.8-0.8H14.9c-0.4,0-0.8,0.4-0.8,0.8
	C14.1,5.4,14.5,5.8,14.9,5.8z M15.6,18.2c-0.4,0-0.9,0-1.3,0c-1.3,0-2.5-0.1-3.6-0.3c-1.1-0.2-2-0.5-2.7-0.9s-1-0.8-1-1.2v-1.6
	c0.8,0.5,1.8,0.9,3.1,1.2s2.7,0.4,4.2,0.4c0.9,0,1.8-0.1,2.7-0.2c0.1,0.4,0.2,0.8,0.5,1l0.4,0.4l0,0l0,0l0.1,0.1
	c0,0.1-0.1,0.2-0.2,0.2h-0.7C16.5,17.4,16,17.7,15.6,18.2z M18.5,13c0.4-0.3,0.8-0.5,1.4-0.5c0.5,0,1,0.2,1.3,0.5
	c0.3-0.3,0.4-0.5,0.4-0.8V11c0-0.4-0.3-0.8-1-1.2s-1.5-0.7-2.7-0.9c-1.1-0.2-2.3-0.3-3.6-0.3s-2.5,0.1-3.6,0.3
	C9.5,9.1,8.7,9.4,8,9.7c-0.7,0.4-1,0.8-1,1.2v1.2c0,0.4,0.3,0.8,1,1.2s1.5,0.7,2.7,0.9c1.1,0.2,2.3,0.3,3.6,0.3c1,0,2-0.1,2.9-0.2
	c0.1-0.2,0.2-0.3,0.3-0.4L18.5,13z M15.2,20v-0.6c-0.3,0-0.6,0-0.9,0c-1.5,0-2.9-0.1-4.2-0.4S7.8,18.3,7,17.8v1.6
	c0,0.4,0.3,0.8,1,1.2c0.7,0.4,1.5,0.7,2.7,0.9c1.1,0.2,2.3,0.3,3.6,0.3c0.4,0,0.9,0,1.3,0c-0.2-0.3-0.4-0.7-0.4-1.1V20z M17.5,23.3
	l0.4-0.4l0,0l0,0l0.1-0.1l0,0c-1.2,0.2-2.4,0.3-3.7,0.3c-1.5,0-2.9-0.1-4.2-0.4S7.8,22,7,21.5v1.6c0,0.4,0.3,0.8,1,1.2
	c0.7,0.4,1.5,0.7,2.7,0.9c1.1,0.2,2.3,0.3,3.6,0.3c1,0,1.9-0.1,2.7-0.2c-0.1-0.2-0.1-0.4-0.1-0.6C16.9,24.2,17.1,23.7,17.5,23.3z
	 M33,19.3V20v0.7c0,0.6-0.4,1.1-1,1.1h-0.7c-0.5,0-1,0.5-1,1c0,0.3,0.1,0.5,0.3,0.7l0.4,0.4c0.4,0.4,0.4,1.1,0,1.5l-1,1
	c-0.2,0.2-0.5,0.3-0.8,0.3s-0.6-0.1-0.8-0.3L28.1,26c-0.2-0.2-0.5-0.3-0.7-0.3c-0.6,0-1,0.5-1,1v0.7c0,0.6-0.5,1.1-1.1,1.1H24
	c-0.6,0-1.1-0.5-1.1-1.1v-0.7c0-0.5-0.5-1-1-1c-0.3,0-0.5,0.1-0.7,0.3l-0.4,0.4c-0.2,0.2-0.5,0.3-0.8,0.3s-0.6-0.1-0.8-0.3l-1-1
	c-0.1-0.1-0.2-0.2-0.2-0.3c-0.2-0.4-0.1-0.9,0.2-1.2l0.4-0.4c0.2-0.2,0.3-0.5,0.3-0.7c0-0.1,0-0.1,0-0.2c-0.1-0.5-0.5-0.8-1-0.8
	h-0.7c-0.1,0-0.2,0-0.3-0.1c-0.4-0.1-0.8-0.5-0.8-1V20v-0.7l0,0c0-0.6,0.5-1.1,1.1-1.1h0.7c0.4,0,0.7-0.2,0.9-0.5
	c0.1-0.1,0.1-0.3,0.1-0.5c0-0.3-0.1-0.5-0.3-0.7l-0.4-0.4c-0.2-0.2-0.3-0.4-0.3-0.6c-0.1-0.3,0-0.7,0.3-1l0.4-0.4l0.6-0.6
	c0.2-0.2,0.5-0.3,0.8-0.3c0.2,0,0.4,0.1,0.6,0.2c0.1,0,0.1,0.1,0.2,0.1L21,14c0.1,0.1,0.3,0.2,0.4,0.3h0.1c0.1,0,0.1,0,0.2,0
	c0.6,0,1-0.5,1-1v-0.7c0-0.6,0.5-1.1,1.1-1.1h1.3c0.6,0,1.1,0.5,1.1,1.1v0.7c0,0.5,0.5,1,1,1c0.3,0,0.6-0.1,0.7-0.3l0.4-0.4
	c0.2-0.2,0.5-0.3,0.8-0.3s0.6,0.1,0.8,0.3l1,1c0.4,0.4,0.4,1.1,0,1.5l-0.4,0.4c-0.2,0.2-0.3,0.4-0.3,0.7c0,0.6,0.5,1,1,1h0.7
	C32.5,18.3,33,18.7,33,19.3z M28.1,20c0-1.9-1.6-3.5-3.5-3.5c-1.3,0-2.4,0.7-3,1.6C21.2,18.7,21,19.3,21,20c0,0.1,0,0.2,0,0.3
	c0,0.4,0.2,0.9,0.4,1.2c0.1,0.1,0.1,0.2,0.2,0.3c0.6,1,1.7,1.6,3,1.6C26.5,23.5,28.1,22,28.1,20z M4.7,5.7C4.3,5.7,4,5.4,4,5
	s0.3-0.7,0.7-0.7S5.5,4.6,5.5,5S5.2,5.7,4.7,5.7z M7.9,5.7C7.5,5.7,7.1,5.4,7.1,5s0.3-0.7,0.7-0.7c0.4,0,0.7,0.3,0.7,0.7
	S8.3,5.7,7.9,5.7z M10.9,5.7c-0.4,0-0.8-0.3-0.8-0.7s0.3-0.7,0.8-0.7s0.8,0.3,0.8,0.7S11.3,5.7,10.9,5.7z"/>
</svg>
