<?xml version="1.0" encoding="utf-8"?>
<!-- Generator: Adobe Illustrator 24.2.1, SVG Export Plug-In . SVG Version: 6.00 Build 0)  -->
<svg version="1.1" id="Layer_1" xmlns="http://www.w3.org/2000/svg" xmlns:xlink="http://www.w3.org/1999/xlink" x="0px" y="0px"
	 viewBox="0 0 40 32" style="enable-background:new 0 0 40 32;" xml:space="preserve">
<style type="text/css">
	.st0{opacity:0.15;fill-rule:evenodd;clip-rule:evenodd;fill:url(#SVGID_1_);enable-background:new    ;}
	.st1{fill:url(#SVGID_2_);}
</style>
<linearGradient id="SVGID_1_" gradientUnits="userSpaceOnUse" x1="7.7726" y1="36.1924" x2="31.3078" y2="2.1382" gradientTransform="matrix(1 0 0 -1 0 34)">
	<stop  offset="0.2593" style="stop-color:#FFDB6E"/>
	<stop  offset="1" style="stop-color:#FFBC5E"/>
</linearGradient>
<path class="st0" d="M3,1C1.9,1,1,1.9,1,3v25c0,1.1,0.9,2,2,2h34c1.1,0,2-0.9,2-2V3c0-1.1-0.9-2-2-2H3z"/>
<linearGradient id="SVGID_2_" gradientUnits="userSpaceOnUse" x1="15.4892" y1="-1.9392" x2="24.6569" y2="34.5201">
	<stop  offset="0.2593" style="stop-color:#FFDB6E"/>
	<stop  offset="1" style="stop-color:#FFBC5E"/>
</linearGradient>
<path class="st1" d="M37.6,0.4H2.4C1.1,0.4,0,1.4,0,2.8v26.5c0,1.3,1.1,2.4,2.4,2.4h35.2c1.3,0,2.4-1.1,2.4-2.4V2.8
	C40,1.4,38.9,0.4,37.6,0.4z M38.4,29.2c0,0.5-0.4,0.8-0.8,0.8H2.4c-0.5,0-0.8-0.4-0.8-0.8V2.8c0-0.5,0.4-0.8,0.8-0.8h35.2
	c0.5,0,0.8,0.4,0.8,0.8V29.2z M14.9,5.8h20.2c0.4,0,0.8-0.3,0.8-0.8c0-0.4-0.3-0.8-0.8-0.8H14.9c-0.4,0-0.8,0.4-0.8,0.8
	C14.1,5.4,14.5,5.8,14.9,5.8z M4,5.3c0,0,0,0.1,0.1,0.1c0,0,0.1,0.1,0.1,0.1c0.1,0.1,0.3,0.2,0.6,0.2c0.1,0,0.1,0,0.2,0
	c0.1,0,0.1,0,0.1,0c0,0,0.1,0,0.1-0.1c0,0,0.1-0.1,0.1-0.1c0,0,0.1-0.1,0.1-0.1c0,0,0.1-0.1,0.1-0.1c0,0,0-0.1,0-0.1
	c0-0.1,0-0.1,0-0.2c0-0.1,0-0.1,0-0.2c0-0.1,0-0.1,0-0.1c0,0,0-0.1-0.1-0.1c0,0-0.1-0.1-0.1-0.1c0,0-0.1-0.1-0.1-0.1
	c0,0-0.1-0.1-0.1-0.1c0,0-0.1,0-0.1,0c-0.1,0-0.2,0-0.3,0c-0.1,0-0.1,0-0.1,0c0,0-0.1,0-0.1,0.1c0,0-0.1,0.1-0.1,0.1
	c0,0-0.1,0.1-0.1,0.1C4,4.6,4,4.7,4,4.7c0,0,0,0.1,0,0.1c0,0,0,0.1,0,0.2c0,0.1,0,0.1,0,0.2C4,5.2,4,5.3,4,5.3z M7.1,5.3
	c0,0,0,0.1,0.1,0.1c0,0,0.1,0.1,0.1,0.1c0.1,0.1,0.3,0.2,0.6,0.2c0.1,0,0.1,0,0.2,0c0.1,0,0.1,0,0.1,0c0,0,0.1,0,0.1-0.1
	c0,0,0.1-0.1,0.1-0.1c0,0,0.1-0.1,0.1-0.1c0,0,0.1-0.1,0.1-0.1c0,0,0-0.1,0-0.1c0-0.1,0-0.1,0-0.2c0-0.1,0-0.1,0-0.2
	c0-0.1,0-0.1,0-0.1c0,0,0-0.1-0.1-0.1c0,0-0.1-0.1-0.1-0.1c0,0-0.1-0.1-0.1-0.1c0,0-0.1-0.1-0.1-0.1c0,0-0.1,0-0.1,0
	c-0.1,0-0.2,0-0.3,0c-0.1,0-0.1,0-0.1,0c0,0-0.1,0-0.1,0.1c0,0-0.1,0.1-0.1,0.1c0,0-0.1,0.1-0.1,0.1c0,0-0.1,0.1-0.1,0.1
	c0,0,0,0.1,0,0.1c0,0,0,0.1,0,0.2c0,0.1,0,0.1,0,0.2C7.1,5.2,7.1,5.3,7.1,5.3z M10.2,5.3c0,0,0,0.1,0.1,0.1c0,0,0.1,0.1,0.1,0.1
	c0,0,0.1,0.1,0.1,0.1c0,0,0.1,0.1,0.1,0.1c0,0,0.1,0,0.1,0c0.1,0,0.1,0,0.2,0c0.1,0,0.1,0,0.2,0c0.1,0,0.1,0,0.1,0s0.1,0,0.1-0.1
	c0,0,0.1-0.1,0.1-0.1c0,0,0.1-0.1,0.1-0.1c0,0,0.1-0.1,0.1-0.1c0,0,0-0.1,0-0.1c0-0.1,0-0.1,0-0.2c0-0.1,0-0.1,0-0.2
	c0-0.1,0-0.1,0-0.1c0,0,0-0.1-0.1-0.1c0,0-0.1-0.1-0.1-0.1c0,0-0.1-0.1-0.1-0.1c0,0-0.1-0.1-0.1-0.1c0,0-0.1,0-0.1,0
	c-0.1,0-0.2,0-0.3,0c-0.1,0-0.1,0-0.1,0c0,0-0.1,0-0.1,0.1c0,0-0.1,0.1-0.1,0.1c0,0-0.1,0.1-0.1,0.1c0,0-0.1,0.1-0.1,0.1
	c0,0,0,0.1,0,0.1c0,0.1,0,0.1,0,0.2c0,0.1,0,0.1,0,0.2C10.2,5.2,10.2,5.3,10.2,5.3z M24.3,11c-0.6-0.4-1.4-0.2-1.7,0.4l-7.4,12.5
	c-0.4,0.6-0.2,1.4,0.4,1.7c0.2,0.1,0.4,0.2,0.6,0.2c0.4,0,0.8-0.2,1.1-0.6l7.4-12.5C25.1,12.1,24.9,11.4,24.3,11z M8.8,14.7v-1.3
	c0-0.7,0.6-1.3,1.3-1.3h0c0.7,0,1.2-0.6,1.2-1.2c0-0.7-0.6-1.2-1.2-1.2h0c-2.1,0-3.7,1.7-3.7,3.7v1.3c0,0.5-0.2,0.9-0.5,1.2
	l-1.6,1.6C4,17.7,3.8,18,3.8,18.3c0,0.3,0.1,0.7,0.4,0.9l1.6,1.6c0.3,0.3,0.5,0.7,0.5,1.2l0,1.3c0,2.1,1.7,3.7,3.7,3.7
	c0.7,0,1.2-0.6,1.2-1.2c0-0.7-0.6-1.2-1.2-1.2c-0.7,0-1.3-0.6-1.3-1.3l0-1.3c0-1.1-0.4-2.1-1.2-2.9l-0.8-0.8l0.7-0.7
	C8.4,16.9,8.8,15.8,8.8,14.7z M31.2,22.1v1.3c0,0.7-0.6,1.3-1.3,1.3h0c-0.7,0-1.2,0.6-1.2,1.2c0,0.7,0.6,1.2,1.2,1.2h0
	c2.1,0,3.7-1.7,3.7-3.7v-1.3c0-0.5,0.2-0.9,0.5-1.2l1.6-1.6c0.2-0.2,0.4-0.6,0.4-0.9c0-0.3-0.1-0.7-0.4-0.9l-1.6-1.6
	c-0.3-0.3-0.5-0.7-0.5-1.2l0-1.3c0-2.1-1.7-3.7-3.7-3.7c-0.7,0-1.2,0.6-1.2,1.2c0,0.7,0.6,1.2,1.2,1.2c0.7,0,1.3,0.6,1.3,1.3l0,1.3
	c0,1.1,0.4,2.1,1.2,2.9l0.8,0.8l-0.7,0.7C31.6,19.9,31.2,20.9,31.2,22.1z"/>
</svg>
