<?xml version="1.0" encoding="utf-8"?>
<!-- Generator: Adobe Illustrator 24.2.1, SVG Export Plug-In . SVG Version: 6.00 Build 0)  -->
<svg version="1.1" id="Layer_1" xmlns="http://www.w3.org/2000/svg" xmlns:xlink="http://www.w3.org/1999/xlink" x="0px" y="0px"
	 viewBox="0 0 40 32" style="enable-background:new 0 0 40 32;" xml:space="preserve">
<style type="text/css">
	.st0{opacity:0.15;fill-rule:evenodd;clip-rule:evenodd;fill:url(#SVGID_1_);enable-background:new    ;}
	.st1{fill:none;}
	.st2{fill:url(#SVGID_2_);}
</style>
<linearGradient id="SVGID_1_" gradientUnits="userSpaceOnUse" x1="7.7726" y1="1043.8076" x2="31.3078" y2="1077.8618" gradientTransform="matrix(1 0 0 1 0 -1046)">
	<stop  offset="0.2593" style="stop-color:#FFDB6E"/>
	<stop  offset="1" style="stop-color:#FFBC5E"/>
</linearGradient>
<path class="st0" d="M3,1C1.9,1,1,1.9,1,3v25c0,1.1,0.9,2,2,2h34c1.1,0,2-0.9,2-2V3c0-1.1-0.9-2-2-2H3z"/>
<path class="st1" d="M-34.8,61.6c-0.3-0.4-0.4-0.9-0.4-1.3C-35.2,60.7-35.1,61.2-34.8,61.6z"/>
<linearGradient id="SVGID_2_" gradientUnits="userSpaceOnUse" x1="13.1446" y1="-1.905" x2="27.0665" y2="34.5168">
	<stop  offset="0.2593" style="stop-color:#FFDB6E"/>
	<stop  offset="1" style="stop-color:#FFBC5E"/>
</linearGradient>
<path class="st2" d="M37.6,0.4H2.4C1.1,0.4,0,1.4,0,2.8v26.5c0,1.3,1.1,2.4,2.4,2.4h35.2c1.3,0,2.4-1.1,2.4-2.4V2.8
	C40,1.4,38.9,0.4,37.6,0.4z M38.4,29.2c0,0.5-0.4,0.8-0.8,0.8H2.4c-0.5,0-0.8-0.4-0.8-0.8V2.8C1.6,2.3,2,2,2.4,2h35.2
	c0.5,0,0.8,0.4,0.8,0.8V29.2z M14.9,5.8h20.2c0.4,0,0.8-0.3,0.8-0.8c0-0.4-0.3-0.8-0.8-0.8H14.9c-0.4,0-0.8,0.4-0.8,0.8
	C14.1,5.4,14.5,5.8,14.9,5.8z M15.4,13.6c-0.2,0-0.4,0.1-0.5,0.1c-1.2,0.2-2.5,0.4-3.9,0.4S8.2,13.9,7,13.7s-2.1-0.5-2.8-0.9
	c-0.7-0.4-1-0.8-1-1.3v-1.3c0-0.4,0.4-0.9,1-1.3S5.8,8.2,7,8C8.2,7.7,9.6,7.6,11,7.6c1.4,0,2.7,0.1,3.9,0.4c1.2,0.2,2.1,0.5,2.8,0.9
	c0.7,0.4,1,0.8,1,1.3v1.3c0,0.3-0.2,0.6-0.5,0.9c0,0,0,0,0,0C17.1,12.4,16.1,12.9,15.4,13.6z M14.3,17.4c0,0.1,0,0.2-0.1,0.3
	c-1,0.1-2,0.2-3.2,0.2c-1.4,0-2.7-0.1-3.9-0.4s-2.1-0.5-2.8-0.9c-0.7-0.4-1-0.8-1-1.3v-1.7c0.8,0.6,1.9,1,3.3,1.3
	c1.4,0.3,2.9,0.4,4.5,0.4c1.2,0,2.4-0.1,3.5-0.3c-0.1,0.4-0.2,0.8-0.2,1.2V17.4z M14.2,24.4c0,0.4,0.1,0.7,0.2,1.1
	c-1.1,0.2-2.2,0.3-3.4,0.3c-1.4,0-2.7-0.1-3.9-0.4s-2.1-0.5-2.8-0.9c-0.7-0.4-1-0.8-1-1.3v-1.7c0.8,0.6,1.9,1,3.3,1.3
	c1.4,0.3,2.9,0.4,4.5,0.4c1.1,0,2.1-0.1,3.1-0.2l0,0c0.1,0.1,0.1,0.2,0.1,0.3V24.4z M12.8,21.7L12.8,21.7c-0.6,0.1-1.2,0.1-1.8,0.1
	c-1.4,0-2.7-0.1-3.9-0.4c-1.2-0.2-2.1-0.5-2.8-0.9c-0.7-0.4-1-0.8-1-1.3v-1.7c0.8,0.6,1.9,1,3.3,1.3c1.4,0.3,2.9,0.4,4.5,0.4
	c0.6,0,1.1,0,1.7-0.1c-0.3,0.3-0.5,0.7-0.5,1.1C12.2,20.9,12.4,21.4,12.8,21.7z M28.5,14.4c-0.5-0.3-1.1-0.2-1.4,0.3l-6,10.2
	c-0.3,0.5-0.2,1.1,0.3,1.4c0.2,0.1,0.3,0.2,0.5,0.2c0.3,0,0.7-0.2,0.9-0.5l6-10.2C29.1,15.3,29,14.7,28.5,14.4z M32.8,23.3v1.1
	c0,0.6-0.5,1.1-1.1,1.1l0,0c-0.6,0-1,0.5-1,1c0,0.6,0.5,1,1,1l0,0c1.7,0,3-1.4,3-3v-1.1c0-0.4,0.2-0.7,0.4-1l1.3-1.3
	c0.2-0.2,0.3-0.5,0.3-0.7s-0.1-0.6-0.3-0.7l-1.3-1.3c-0.2-0.2-0.4-0.6-0.4-1v-1.1c0-1.7-1.4-3-3-3c-0.6,0-1,0.5-1,1c0,0.6,0.5,1,1,1
	c0.6,0,1.1,0.5,1.1,1.1v1.1c0,0.9,0.3,1.7,1,2.4l0.7,0.7l-0.6,0.6C33.2,21.5,32.8,22.3,32.8,23.3z M19.1,26.4c0,0.5-0.4,1-1,1
	c-1.6,0-3-1.3-3-3v-1.1c0-0.4-0.2-0.7-0.4-1L13.4,21c-0.1,0-0.1-0.1-0.2-0.1c-0.1-0.2-0.2-0.4-0.2-0.6c0-0.2,0.2-0.5,0.4-0.7
	l1.3-1.3c0.2-0.2,0.4-0.6,0.4-1v-1.1c0-1.6,1.3-3,3-3c0.5,0,1,0.4,1,1c0,0.5-0.4,1-1,1s-1.1,0.5-1.1,1.1v1.1c0,0.9-0.3,1.8-1.1,2.4
	l-0.6,0.6l0.7,0.7c0.7,0.7,1,1.5,1,2.4v1.1c0,0.6,0.5,1.1,1.1,1.1C18.6,25.4,19.1,25.8,19.1,26.4z M4.7,5.8C4.3,5.8,4,5.4,4,5
	s0.3-0.7,0.7-0.7S5.5,4.6,5.5,5S5.2,5.8,4.7,5.8z M7.9,5.8C7.4,5.8,7.1,5.4,7.1,5s0.3-0.7,0.7-0.7S8.6,4.6,8.6,5S8.3,5.8,7.9,5.8z
	 M10.9,5.8c-0.4,0-0.8-0.3-0.8-0.7s0.3-0.7,0.8-0.7s0.8,0.3,0.8,0.7S11.3,5.8,10.9,5.8z"/>
</svg>
