<?xml version="1.0" encoding="utf-8"?>
<!-- Generator: Adobe Illustrator 24.2.1, SVG Export Plug-In . SVG Version: 6.00 Build 0)  -->
<svg version="1.1" id="Layer_1" xmlns="http://www.w3.org/2000/svg" xmlns:xlink="http://www.w3.org/1999/xlink" x="0px" y="0px"
	 viewBox="0 0 42 42" style="enable-background:new 0 0 42 42;" xml:space="preserve">
<style type="text/css">
	.st0{opacity:0.15;fill:url(#SVGID_1_);enable-background:new    ;}
	.st1{fill:none;}
	.st2{fill:url(#SVGID_2_);}
	.st3{fill:url(#SVGID_3_);}
	.st4{fill:url(#SVGID_4_);}
	.st5{fill:url(#SVGID_5_);}
</style>
<linearGradient id="SVGID_1_" gradientUnits="userSpaceOnUse" x1="17.3" y1="16.4" x2="39.4" y2="16.4" gradientTransform="matrix(1 0 0 -1 0 44)">
	<stop  offset="0.2593" style="stop-color:#FFDB6E"/>
	<stop  offset="1" style="stop-color:#FFBC5E"/>
</linearGradient>
<path class="st0" d="M37.5,16.7c-3.5,0-7.1,0-10.6,0c-0.2,0-0.3,0-0.4,0c-1.3,5-4.3,8.2-9.2,9.7c0,0.1,0,0.3,0,0.4
	c0,2.2,0,4.3,0,6.5c0,1.2,0.7,1.9,1.9,1.9c3.6,0,7.2,0,10.8,0c0.4,0,0.7,0.1,1,0.3c1.2,1,2.4,2,3.7,3c0-0.3,0-0.4-0.1-0.5
	c0.1-3.2-0.3-2.8,2.8-2.8h0.1c1.2,0,1.9-0.7,1.9-1.9c0-4.9,0-9.8,0-14.7C39.4,17.4,38.7,16.7,37.5,16.7z"/>
<path class="st1" d="M37.5,16.6c-3.5,0-7.1,0-10.6,0c-0.1,0-0.3,0-0.4,0c-1.3,5-4.4,8.2-9.2,9.7c0,0.1,0,0.3,0,0.4
	c0,2.2,0,4.3,0,6.5c0,1.2,0.7,1.9,1.9,1.9c3.6,0,7.2,0,10.8,0c0.4,0,0.7,0.1,1,0.3c1.2,1,2.4,2,3.7,3c0-0.2,0-0.4,0-0.5
	c0-3.1-0.4-2.8,2.8-2.8h0.1c1.2,0,1.9-0.7,1.9-1.9c0-4.9,0-9.8,0-14.7C39.4,17.3,38.7,16.6,37.5,16.6z"/>
<linearGradient id="SVGID_2_" gradientUnits="userSpaceOnUse" x1="-28.8582" y1="-10.5936" x2="-25.0064" y2="4.7246" gradientTransform="matrix(1 0 0 -1 0 44)">
	<stop  offset="0.2593" style="stop-color:#FFDB6E"/>
	<stop  offset="1" style="stop-color:#FFBC5E"/>
</linearGradient>
<path class="st2" d="M-22.6,39.7c-0.6-0.4-1.4-0.2-1.7,0.4l-7.4,12.5c-0.4,0.6-0.2,1.4,0.4,1.7c0.2,0.1,0.4,0.2,0.6,0.2
	c0.4,0,0.8-0.2,1.1-0.6l7.4-12.5C-21.8,40.8-22,40.1-22.6,39.7z"/>
<linearGradient id="SVGID_3_" gradientUnits="userSpaceOnUse" x1="-40.3477" y1="-10.5446" x2="-36.3723" y2="5.2654" gradientTransform="matrix(1 0 0 -1 0 44)">
	<stop  offset="0.2593" style="stop-color:#FFDB6E"/>
	<stop  offset="1" style="stop-color:#FFBC5E"/>
</linearGradient>
<path class="st3" d="M-38.1,43.4v-1.3c0-0.7,0.6-1.3,1.3-1.3l0,0c0.7,0,1.2-0.6,1.2-1.2c0-0.7-0.6-1.2-1.2-1.2l0,0
	c-2.1,0-3.7,1.7-3.7,3.7v1.3c0,0.5-0.2,0.9-0.5,1.2l-1.6,1.6c-0.3,0.2-0.5,0.5-0.5,0.8s0.1,0.7,0.4,0.9l1.6,1.6
	c0.3,0.3,0.5,0.7,0.5,1.2V52c0,2.1,1.7,3.7,3.7,3.7c0.7,0,1.2-0.6,1.2-1.2c0-0.7-0.6-1.2-1.2-1.2c-0.7,0-1.3-0.6-1.3-1.3v-1.3
	c0-1.1-0.4-2.1-1.2-2.9l-0.8-0.8l0.7-0.7C-38.5,45.6-38.1,44.5-38.1,43.4z"/>
<linearGradient id="SVGID_4_" gradientUnits="userSpaceOnUse" x1="-17.4869" y1="1074.9575" x2="-13.4933" y2="1090.8396" gradientTransform="matrix(1 0 0 1 0 -1036)">
	<stop  offset="0.2593" style="stop-color:#FFDB6E"/>
	<stop  offset="1" style="stop-color:#FFBC5E"/>
</linearGradient>
<path class="st4" d="M-15.7,50.8v1.3c0,0.7-0.6,1.3-1.3,1.3l0,0c-0.7,0-1.2,0.6-1.2,1.2c0,0.7,0.6,1.2,1.2,1.2l0,0
	c2.1,0,3.7-1.7,3.7-3.7v-1.3c0-0.5,0.2-0.9,0.5-1.2l1.6-1.6c0.2-0.2,0.4-0.6,0.4-0.9s-0.1-0.7-0.4-0.9l-1.6-1.6
	c-0.3-0.3-0.5-0.7-0.5-1.2v-1.3c0-2.1-1.7-3.7-3.7-3.7c-0.7,0-1.2,0.6-1.2,1.2c0,0.7,0.6,1.2,1.2,1.2c0.7,0,1.3,0.6,1.3,1.3v1.3
	c0,1.1,0.4,2.1,1.2,2.9l0.8,0.8l-0.7,0.7C-15.3,48.6-15.7,49.6-15.7,50.8z"/>
<rect x="3.7" y="69.1" class="st1" width="27.3" height="8.4"/>
<text transform="matrix(1 0 0 1 3.6509 74.1012)" style="font-family:'MaiandraGD-Regular'; font-size:7px;">&lt;/&gt; {;}</text>
<path class="st1" d="M21.5,25.7c0.7,0,1.2,0.2,1.5,0.6s0.5,1,0.5,1.8c0,0.5,0,1,0,1.5c0,0.6,0,0.9,0,1c0,0.6,0.1,1,0.3,1.3
	c0.2,0.3,0.5,0.4,0.9,0.5c0.1,0,0.1,0,0.2,0c0.5,0,0.8,0.1,0.8,0.4c0,0.2-0.1,0.3-0.3,0.4c-0.2,0.1-0.4,0.1-0.7,0.1
	c-1,0-1.6-0.2-2-0.6c-0.4-0.4-0.6-1.2-0.6-2.3c0-0.2,0-0.4,0-0.8s0-0.6,0-0.8c0-0.9-0.1-1.5-0.3-1.8c-0.2-0.3-0.5-0.6-0.9-0.7
	c-0.1,0-0.2,0-0.3-0.1C20.2,26.1,20,26,20,25.8c-0.6,0.3-1.3,0.6-2,0.9v6.4c0,0.8,0.4,1.2,1.3,1.2H30c0.5,0,0.9,0.1,1.4,0.4
	c0.9,0.7,1.8,1.5,2.7,2.2c0,0,0,0,0-0.1c0-1.1,0-1.7,0.4-2.1c0.4-0.4,1.1-0.4,2.3-0.4h0.9c0.8,0,1.3-0.4,1.3-1.2
	c-0.1-4.9-0.1-9.9-0.1-14.7c0-0.8-0.4-1.3-1.3-1.3H27c-0.7,2.5-1.9,4.5-3.6,6.2c-0.1,0.6-0.2,1.1-0.4,1.4
	C22.8,25.3,22.3,25.6,21.5,25.7z"/>
<linearGradient id="SVGID_5_" gradientUnits="userSpaceOnUse" x1="13.3683" y1="43.1311" x2="30.2433" y2="0.8733" gradientTransform="matrix(1 0 0 -1 0 44)">
	<stop  offset="0.2593" style="stop-color:#FFDB6E"/>
	<stop  offset="1" style="stop-color:#FFBC5E"/>
</linearGradient>
<path class="st5" d="M5.4,4.6C5,4.6,4.6,4.9,4.6,5.4c0,0.4,0.4,0.8,0.8,0.8s0.8-0.3,0.8-0.8C6.2,4.9,5.9,4.6,5.4,4.6z M37.3,14.9
	c-3.3,0-6.7,0-10.1,0c-0.2,0-0.3,0-0.5,0c0-0.4,0-0.8,0-1.2v-0.1c0-0.3,0-0.7,0-1c-0.4-5.1-3.9-9.4-8.6-11c-0.2-0.1-0.4-0.1-0.6-0.2
	h-0.1c-0.3,0-0.7-0.1-1.1-0.2C15.6,1.1,14.8,1,14,1c-0.4,0-0.8,0.1-1.2,0.1h-0.1c-1.8,0.2-3.5,0.7-5,1.6C7.5,2.8,7.3,3.1,7.2,3.3
	c-0.1,0.3,0,0.6,0.3,0.8C7.7,4.2,8,4.2,8.4,4.2c1.2-0.7,2.7-1.2,4.2-1.4h0.1c0.2-0.1,0.4-0.1,0.7-0.1h0.1c0.2,0,0.3,0,0.5,0h0.1
	c0.1,0,0.2,0,0.3,0s0.2,0,0.3,0c0.2,0,0.3,0,0.4,0c5.5,0.5,9.6,4.9,10.1,10.1c0.1,0.4,0.1,0.7,0.1,1.1c0,0.9-0.1,1.8-0.4,2.8
	c-2.1,7.9-11.4,11-17.8,6.1c-0.3-0.2-0.7-0.3-1.1-0.2c-0.6,0.2-1.2,0.3-1.9,0.5c0.2-0.6,0.5-1.1,0.7-1.6C5,21.1,5,20.7,4.7,20.3
	C2.2,16.5,2,12.5,4,8.4c0.1-0.1,0.2-0.2,0.2-0.3c0.2-0.3,0-0.7-0.3-0.9C3.6,7,3.2,7,2.9,7.4C2.8,7.5,2.7,7.7,2.6,7.8
	c-2.3,4.4-2.1,8.7,0.4,13c0.2,0.3,0.2,0.4,0.1,0.7c-0.4,0.8-0.7,1.6-1.1,2.4c-0.1,0.3-0.2,0.6,0.1,0.9C2.3,25.1,2.6,25.1,3,25
	c1-0.3,1.9-0.5,2.9-1c0.2-0.1,0.4-0.1,0.6,0.1c2.5,1.8,5.2,2.5,8.2,2.4c0.4,0,0.7-0.1,1.1-0.1c0,0.2,0,0.4,0,0.5c0,2,0,4.1,0,6.1
	c0,2.1,1.4,3.5,3.5,3.5c3.5,0,6.9,0,10.4,0c0.3,0,0.6,0.1,0.8,0.3c1.5,1.3,3,2.5,4.5,3.7c0.3,0.3,0.6,0.4,0.9,0.2
	c0.3-0.2,0.4-0.4,0.4-0.8c0-1,0-1.9,0-2.9c0-0.1,0-0.3,0-0.4c0.5,0,1,0,1.5,0c0.9,0,1.7-0.4,2.3-1c0.5-0.5,0.7-1.1,0.9-1.8
	c0-5.3,0-10.7,0-16C40.4,15.9,39.3,15,37.3,14.9z M37.6,35.1L37.6,35.1c-3.3,0-2.9-0.3-2.9,2.8c0,0.1,0,0.3,0,0.5
	c-1.3-1-2.5-2-3.7-3c-0.3-0.2-0.6-0.3-1-0.3c-3.6,0-7.2,0-10.8,0c-1.2,0-1.9-0.7-1.9-1.9c0-2.2,0-4.3,0-6.5c0-0.1,0-0.3,0-0.4
	c4.8-1.5,7.9-4.7,9.2-9.7c0.1,0,0.3,0,0.4,0c3.5,0,7.1,0,10.6,0c1.2,0,1.9,0.7,1.9,1.9c0,4.9,0,9.8,0.1,14.7
	C39.5,34.4,38.8,35.1,37.6,35.1z M5.4,13.3l5-2.6c0,0,0.1,0,0.1-0.1h0.1c0.1,0,0.2,0,0.3,0.1c0.1,0.1,0.1,0.2,0.1,0.4
	c0,0.1,0,0.2-0.1,0.3c-0.1,0.1-0.1,0.2-0.2,0.2l-4.5,2.4l4.5,2.4c0.1,0.1,0.2,0.1,0.2,0.3c0.1,0.1,0.1,0.2,0.1,0.3
	c0,0.1,0,0.3-0.1,0.4c-0.1,0.1-0.2,0.1-0.3,0.1c-0.1,0-0.1,0-0.1,0s-0.1,0-0.1-0.1l-5-2.6c-0.2-0.1-0.3-0.2-0.4-0.3
	c-0.1-0.1-0.1-0.3-0.1-0.4c0-0.1,0-0.3,0.1-0.4C5,13.4,5.2,13.4,5.4,13.3z M15.8,9.5L15.8,9.5c0.3-0.5,0.5-0.6,0.9-0.6
	c0.1,0,0.2,0,0.3,0.1c0.1,0,0.1,0.1,0.1,0.2c0,0,0,0.1,0,0.2c0,0.1-0.1,0.2-0.2,0.3l-4.7,8.6c-0.2,0.3-0.3,0.5-0.4,0.5
	c-0.1,0.1-0.3,0.1-0.5,0.1c-0.1,0-0.3,0-0.3-0.1c-0.1,0-0.1-0.1-0.1-0.2c0,0,0-0.1,0-0.2c0-0.1,0.1-0.2,0.2-0.3L15.8,9.5z
	 M22.4,13.3c0.2,0.1,0.3,0.2,0.4,0.3c0.1,0.1,0.1,0.2,0.1,0.4c0,0.1-0.1,0.3-0.2,0.4c-0.1,0.1-0.2,0.2-0.4,0.3l-5,2.6
	c-0.1,0-0.1,0-0.2,0.1h-0.1c-0.1,0-0.2,0-0.3-0.1c-0.1-0.1-0.1-0.2-0.1-0.4c0-0.1,0-0.2,0.1-0.3c0.1-0.1,0.1-0.2,0.3-0.3
	c0.1,0,0.5-0.3,1.2-0.6c0.7-0.4,1.8-1,3.3-1.7l-4.5-2.4c-0.1-0.1-0.2-0.1-0.2-0.2c-0.1-0.1-0.1-0.2-0.1-0.3c0-0.1,0-0.3,0.1-0.4
	s0.2-0.1,0.3-0.1h0.1c0,0,0.1,0,0.1,0.1L22.4,13.3z M28.2,32L28.2,32c-0.1,0-0.2,0-0.2,0.1h-0.1L27.8,32l0.1-0.1
	c0.2-0.1,0.3-0.3,0.4-0.5s0.2-0.4,0.2-0.6c0-0.1,0-0.1,0-0.2s0-0.2,0-0.2c-0.1-0.1-0.3-0.2-0.5-0.3c-0.1,0-0.1,0-0.1,0
	c-0.3-0.1-0.5-0.2-0.6-0.3C27,29.7,27,29.5,27,29.2s0.1-0.5,0.3-0.7c0.2-0.2,0.5-0.3,0.8-0.3c0.5,0,0.8,0.2,1.1,0.5
	c0.3,0.3,0.4,0.7,0.4,1.2c0,0.4-0.1,0.8-0.4,1.2C29.1,31.4,28.7,31.7,28.2,32z M29.5,23.6c0,0.3-0.1,0.6-0.4,0.8
	c-0.2,0.2-0.5,0.3-0.9,0.3c-0.3,0-0.6-0.1-0.8-0.3c-0.2-0.2-0.3-0.5-0.3-0.8s0.1-0.6,0.3-0.8c0.2-0.2,0.5-0.3,0.9-0.3
	c0.3,0,0.6,0.1,0.8,0.3C29.4,23,29.5,23.3,29.5,23.6z M34.7,23.3c0,0.6,0.1,1,0.4,1.3c0.2,0.3,0.6,0.5,1.2,0.6c0,0,0,0,0.1,0
	c0.3,0.1,0.5,0.2,0.5,0.5s-0.2,0.4-0.6,0.5l0,0c-0.6,0.1-1,0.4-1.2,0.7c-0.2,0.3-0.3,1-0.3,1.9c0,0.2,0,0.4,0,0.8s0,0.6,0,0.8
	c0,1.1-0.2,1.9-0.6,2.3c-0.4,0.4-1.1,0.6-2,0.6c-0.3,0-0.6,0-0.7-0.1c-0.2-0.1-0.2-0.2-0.2-0.4s0.3-0.4,0.8-0.4c0.1,0,0.2,0,0.2,0
	c0.4,0,0.7-0.2,0.9-0.5s0.3-0.8,0.3-1.4c0,0,0-0.3,0-0.8s0-1,0-1.6c0-0.8,0.2-1.4,0.5-1.8s0.8-0.6,1.5-0.6c-0.7-0.2-1.2-0.4-1.5-0.9
	c-0.3-0.4-0.4-1.1-0.4-2.1c0-0.2,0-0.5,0-0.9s0-0.7,0-0.9c0-0.6-0.1-1-0.2-1.3c-0.1-0.3-0.4-0.5-0.7-0.6c-0.2,0-0.4-0.1-0.7-0.1
	c-0.4,0-0.7-0.2-0.7-0.4c0-0.2,0.1-0.3,0.3-0.4c0.2-0.1,0.5-0.1,1-0.1c0.8,0,1.4,0.2,1.7,0.7c0.4,0.5,0.5,1.2,0.5,2.3L34.7,23.3
	L34.7,23.3z M20,25.9c1.3-0.7,2.5-1.5,3.5-2.5c-0.1,0.6-0.2,1.1-0.4,1.4c-0.3,0.4-0.8,0.8-1.5,0.9c0.7,0,1.2,0.2,1.5,0.6
	s0.5,1,0.5,1.8c0,0.5,0,1,0,1.5c0,0.6,0,0.9,0,1c0,0.6,0.1,1,0.3,1.3c0.2,0.3,0.5,0.4,0.9,0.5c0.1,0,0.1,0,0.2,0
	c0.5,0,0.8,0.1,0.8,0.4c0,0.2-0.1,0.3-0.3,0.4c-0.2,0.1-0.4,0.1-0.7,0.1c-1,0-1.6-0.2-2-0.6c-0.4-0.4-0.6-1.2-0.6-2.3
	c0-0.2,0-0.4,0-0.8s0-0.6,0-0.8c0-0.9-0.1-1.5-0.3-1.8c-0.2-0.3-0.5-0.6-0.9-0.7c-0.1,0-0.2,0-0.3-0.1C20.3,26.2,20.1,26.1,20,25.9z
	"/>
</svg>
