<?xml version="1.0" encoding="utf-8"?>
<!-- Generator: Adobe Illustrator 24.2.1, SVG Export Plug-In . SVG Version: 6.00 Build 0)  -->
<svg version="1.1" id="Layer_1" xmlns="http://www.w3.org/2000/svg" xmlns:xlink="http://www.w3.org/1999/xlink" x="0px" y="0px"
	 viewBox="0 0 42 42" style="enable-background:new 0 0 42 42;" xml:space="preserve">
<style type="text/css">
	.st0{opacity:0.15;fill:url(#SVGID_1_);enable-background:new    ;}
	.st1{opacity:0.15;fill:url(#SVGID_2_);enable-background:new    ;}
	.st2{fill:none;}
	.st3{fill:url(#SVGID_3_);stroke:url(#SVGID_4_);stroke-width:0.25;}
</style>
<linearGradient id="SVGID_1_" gradientUnits="userSpaceOnUse" x1="17.3019" y1="27.5339" x2="39.412" y2="27.5339">
	<stop  offset="0.2593" style="stop-color:#FFDB6E"/>
	<stop  offset="1" style="stop-color:#FFBC5E"/>
</linearGradient>
<path class="st0" d="M34.7,38.5c-1.3-1-2.5-2-3.7-3c-0.3-0.2-0.6-0.3-1-0.3c-3.6,0-7.2,0-10.8,0c-1.2,0-1.9-0.7-1.9-1.9
	c0-2.2,0-4.3,0-6.5c0-0.1,0-0.3,0-0.4c4.9-1.5,7.9-4.7,9.2-9.7c0.1,0,0.2,0,0.4,0c3.5,0,7.1,0,10.6,0c1.2,0,1.9,0.7,1.9,1.9
	c0,4.9,0,9.8,0,14.7c0,1.2-0.7,1.9-1.9,1.9c0,0-0.1,0-0.1,0c-3.1,0-2.7-0.4-2.8,2.8C34.7,38.1,34.7,38.2,34.7,38.5z M24.5,28.2
	c-0.3,0.7-0.6,1.3-0.9,2c-0.2,0.5-0.1,1,0.4,1.1c0.4,0.2,0.8,0,1-0.5c0.3-0.7,0.7-1.5,1-2.2c0.1-0.2,0.2-0.3,0.5-0.3
	c1.2,0,2.5,0,3.7,0c0.3,0,0.4,0.1,0.5,0.3c0.3,0.8,0.7,1.5,1,2.3c0.3,0.6,0.9,0.7,1.3,0.3c0.2-0.3,0.3-0.6,0.1-0.9
	c-0.3-0.7-0.6-1.3-0.9-2c0.4-0.2,0.5-0.6,0.4-1c-0.1-0.4-0.5-0.5-0.9-0.5c-0.1,0-0.3-0.2-0.3-0.3c-0.8-1.7-1.5-3.5-2.3-5.2
	c-0.2-0.4-0.4-0.7-0.8-0.7c-0.4,0-0.6,0.3-0.8,0.7c-0.7,1.7-1.5,3.4-2.3,5.2c-0.1,0.2-0.2,0.4-0.5,0.4c-0.4,0-0.6,0.2-0.7,0.6
	C24,27.7,24.2,28,24.5,28.2z"/>
<linearGradient id="SVGID_2_" gradientUnits="userSpaceOnUse" x1="26.8455" y1="24.9438" x2="29.8713" y2="24.9438">
	<stop  offset="0.2593" style="stop-color:#FFDB6E"/>
	<stop  offset="1" style="stop-color:#FFBC5E"/>
</linearGradient>
<path class="st1" d="M29.9,26.7c-1,0-2,0-3,0c0.5-1.1,1-2.2,1.5-3.4C28.9,24.4,29.4,25.5,29.9,26.7z"/>
<path class="st2" d="M37.5,16.6c-3.5,0-7.1,0-10.6,0c-0.1,0-0.3,0-0.4,0c-1.3,5-4.4,8.2-9.2,9.7c0,0.1,0,0.3,0,0.4
	c0,2.2,0,4.3,0,6.5c0,1.2,0.7,1.9,1.9,1.9c3.6,0,7.2,0,10.8,0c0.4,0,0.7,0.1,1,0.3c1.2,1,2.4,2,3.7,3c0-0.2,0-0.4,0-0.5
	c0-3.1-0.4-2.8,2.8-2.8c0,0,0.1,0,0.1,0c1.2,0,1.9-0.7,1.9-1.9c0-4.9,0-9.8,0-14.7C39.4,17.3,38.7,16.6,37.5,16.6z"/>
<linearGradient id="SVGID_3_" gradientUnits="userSpaceOnUse" x1="13.3765" y1="0.8656" x2="30.2515" y2="43.1234">
	<stop  offset="0.2593" style="stop-color:#FFDB6E"/>
	<stop  offset="1" style="stop-color:#FFBC5E"/>
</linearGradient>
<linearGradient id="SVGID_4_" gradientUnits="userSpaceOnUse" x1="0.9654" y1="20.9607" x2="41.0938" y2="20.9607">
	<stop  offset="0.2593" style="stop-color:#FFDB6E"/>
	<stop  offset="1" style="stop-color:#FFBC5E"/>
</linearGradient>
<path class="st3" d="M14.7,13.3c0.3,0.7,0.4,1.4,0.7,2.1c0.6,1.4,1.6,2.4,2.9,3.2c0.1,0,0.2,0.1,0.2,0.1c0.4,0.3,0.5,0.7,0.3,1.1
	c-0.2,0.4-0.7,0.5-1,0.3c-0.5-0.3-1.1-0.7-1.6-1.1c-1-0.8-1.7-1.8-2.2-3c-0.4,0.6-0.8,1.3-1.3,1.9c-0.7,0.9-1.5,1.5-2.4,2.1
	c-0.5,0.3-1,0.2-1.2-0.2c-0.2-0.4-0.1-0.8,0.4-1.1c1.9-1.1,3.1-2.7,3.6-4.9c0-0.1,0-0.3,0.1-0.4c-0.9,0-1.8,0-2.7,0
	c-0.6,0-1-0.6-0.8-1.1c0.2-0.3,0.4-0.5,0.8-0.5c0.8,0,1.5,0,2.3,0c0.1,0,0.3,0,0.4,0c0-0.9,0-1.7,0-2.5c0-0.2,0-0.5,0-0.7
	c0-0.5,0.3-0.8,0.8-0.8c0.4,0,0.8,0.3,0.8,0.8c0,0.9,0,1.8,0,2.7c0,0.2,0,0.3,0,0.5c0.2,0,0.3,0,0.4,0c1,0,2,0,3,0
	c0.6,0,0.9,0.3,0.9,0.8c0,0.5-0.4,0.8-0.9,0.8c-0.9,0-1.9,0-2.8,0C15.1,13.3,15,13.3,14.7,13.3z M23.6,30.2c-0.2,0.5-0.1,1,0.4,1.1
	c0.4,0.2,0.8,0,1-0.5c0.3-0.7,0.7-1.5,1-2.2c0.1-0.2,0.2-0.3,0.5-0.3c1.2,0,2.5,0,3.7,0c0.3,0,0.4,0.1,0.5,0.3
	c0.3,0.8,0.7,1.5,1,2.3c0.3,0.6,0.9,0.7,1.3,0.3c0.2-0.3,0.3-0.6,0.1-0.9c-0.3-0.7-0.6-1.3-0.9-2c0.4-0.2,0.5-0.6,0.4-1
	c-0.1-0.4-0.5-0.5-0.9-0.5c-0.1,0-0.3-0.2-0.3-0.3c-0.8-1.7-1.5-3.5-2.3-5.2c-0.2-0.4-0.4-0.7-0.8-0.7c-0.4,0-0.6,0.3-0.8,0.7
	c-0.7,1.7-1.5,3.4-2.3,5.2c-0.1,0.2-0.2,0.4-0.5,0.4c-0.4,0-0.6,0.2-0.7,0.6c-0.1,0.4,0.1,0.7,0.4,0.9
	C24.2,28.9,23.9,29.5,23.6,30.2z M26.8,26.7c0.5-1.1,1-2.2,1.5-3.4c0.5,1.2,1,2.3,1.5,3.4C28.8,26.7,27.9,26.7,26.8,26.7z M5.4,4.6
	C5,4.6,4.6,4.9,4.6,5.4c0,0.4,0.4,0.8,0.8,0.8c0.4,0,0.8-0.3,0.8-0.8C6.2,4.9,5.9,4.6,5.4,4.6z M41,17.8c0,5.3,0,10.7,0,16
	c-0.2,0.7-0.4,1.3-0.9,1.8c-0.6,0.6-1.4,1-2.3,1c-0.5,0-1,0-1.5,0c0,0.1,0,0.3,0,0.4c0,1,0,1.9,0,2.9c0,0.4-0.1,0.6-0.4,0.8
	c-0.3,0.2-0.6,0.1-0.9-0.2c-1.5-1.2-3-2.4-4.5-3.7c-0.2-0.2-0.5-0.3-0.8-0.3c-3.5,0-6.9,0-10.4,0c-2.1,0-3.5-1.4-3.5-3.5
	c0-2,0-4.1,0-6.1c0-0.1,0-0.3,0-0.5c-0.4,0-0.7,0.1-1.1,0.1c-3,0.1-5.7-0.6-8.2-2.4c-0.2-0.2-0.4-0.2-0.6-0.1C4.9,24.5,4,24.7,3,25
	c-0.4,0.1-0.7,0.1-0.9-0.2c-0.3-0.3-0.2-0.6-0.1-0.9c0.4-0.8,0.7-1.6,1.1-2.4c0.1-0.3,0.1-0.4-0.1-0.7c-2.5-4.3-2.7-8.6-0.4-13
	c0.1-0.1,0.2-0.3,0.3-0.4C3.2,7,3.6,7,3.9,7.2c0.3,0.2,0.5,0.6,0.3,0.9c0,0.1-0.1,0.2-0.2,0.3C2,12.5,2.2,16.5,4.7,20.3
	C5,20.7,5,21.1,4.8,21.5c-0.2,0.5-0.5,1-0.7,1.6c0.7-0.2,1.3-0.3,1.9-0.5c0.4-0.1,0.8,0,1.1,0.2c6.4,4.9,15.7,1.8,17.8-6.1
	c0.3-1,0.4-1.9,0.4-2.8l0,0c0-0.4,0-0.7-0.1-1.1h0c-0.5-5.2-4.6-9.6-10.1-10.1c-0.1,0-0.2,0-0.4,0c-0.1,0-0.2,0-0.3,0
	c-0.1,0-0.2,0-0.3,0c0,0-0.1,0-0.1,0c-0.2,0-0.3,0-0.5,0c0,0-0.1,0-0.1,0c-0.3,0-0.5,0-0.7,0.1c0,0-0.1,0-0.1,0
	c-1.5,0.2-3,0.7-4.2,1.4C8,4.2,7.7,4.2,7.5,4.1C7.2,3.9,7.1,3.6,7.2,3.3c0.1-0.2,0.3-0.5,0.5-0.6c1.5-0.9,3.2-1.4,5-1.6
	c0,0,0.1,0,0.1,0c0.4,0,0.8-0.1,1.2-0.1c0.8,0,1.6,0.1,2.3,0.2c0.4,0.1,0.8,0.2,1.1,0.2c0,0,0.1,0,0.1,0c0.2,0.1,0.4,0.1,0.6,0.2
	c4.7,1.6,8.2,5.9,8.6,11h0c0,0.3,0,0.7,0,1l0,0l0,0.1c0,0,0,0,0,0c0,0.4,0,0.8,0,1.2c0.2,0,0.3,0,0.5,0c3.4,0,6.8,0,10.1,0
	C39.3,15,40.4,15.9,41,17.8C40.9,17.8,41,17.8,41,17.8z M39.4,18.5c0-1.2-0.7-1.9-1.9-1.9c-3.5,0-7.1,0-10.6,0c-0.1,0-0.3,0-0.4,0
	c-1.3,5-4.4,8.2-9.2,9.7c0,0.1,0,0.3,0,0.4c0,2.2,0,4.3,0,6.5c0,1.2,0.7,1.9,1.9,1.9c3.6,0,7.2,0,10.8,0c0.4,0,0.7,0.1,1,0.3
	c1.2,1,2.4,2,3.7,3c0-0.2,0-0.4,0-0.5c0-3.1-0.4-2.8,2.8-2.8c0,0,0.1,0,0.1,0c1.2,0,1.9-0.7,1.9-1.9C39.4,28.3,39.4,23.4,39.4,18.5z
	"/>
</svg>
